<svg xmlns="http://www.w3.org/2000/svg" viewBox="0 0 470 470" style="enable-background:new 0 0 470 470" xml:space="preserve"><path style="fill:#185f8d" d="M432.5 105h-40.02a37.3 37.3 0 0 1 7.52 22.5v185c0 4.143-3.357 7.5-7.5 7.5v15c4.143 0 7.5 3.357 7.5 7.5a37.3 37.3 0 0 1-7.52 22.5h40.02c12.406 0 22.5-10.094 22.5-22.5v-215c0-12.406-10.094-22.5-22.5-22.5z"/><path style="fill:#6da8d6" d="M385 312.5v-185c0-12.406-10.094-22.5-22.5-22.5H240v177.5c0 4.143-3.357 7.5-7.5 7.5v15c4.143 0 7.5 3.357 7.5 7.5V365h122.5c12.406 0 22.5-10.094 22.5-22.5 0-4.143 3.357-7.5 7.5-7.5v-15a7.499 7.499 0 0 1-7.5-7.5z"/><path style="fill:#f2484b" d="M225 282.5V105H37.5C25.094 105 15 115.094 15 127.5v215c0 12.406 10.094 22.5 22.5 22.5H225v-52.5c0-4.143 3.357-7.5 7.5-7.5v-15a7.499 7.499 0 0 1-7.5-7.5zM53.452 304.524a7.478 7.478 0 0 1-5.305-2.198 7.503 7.503 0 0 1 5.302-12.807 7.486 7.486 0 0 1 6.219 3.308 7.466 7.466 0 0 1 1.283 4.196 7.498 7.498 0 0 1-7.499 7.501zm30 30a7.474 7.474 0 0 1-5.304-2.198 7.503 7.503 0 0 1 5.302-12.807 7.486 7.486 0 0 1 5.789 2.734c.028.034.053.072.081.107.121.152.24.306.349.467a7.5 7.5 0 0 1-6.217 11.697zM190.5 142.98c0 4.14-3.36 7.5-7.5 7.5a7.503 7.503 0 0 1 0-15.005c4.142 0 7.5 3.358 7.5 7.505z"/><path style="fill:#082947" d="M89.32 322.361c-.028-.035-.052-.073-.081-.107a7.5 7.5 0 1 0 .43.575 7.577 7.577 0 0 0-.349-.468zM59.262 292.285c-1.399-1.698-3.48-2.761-5.81-2.761a7.5 7.5 0 1 0 6.217 3.304 7.384 7.384 0 0 0-.407-.543z"/><path style="fill:#082947" d="M432.5 90h-395C16.822 90 0 106.822 0 127.5v215C0 363.178 16.822 380 37.5 380h395c20.678 0 37.5-16.822 37.5-37.5v-215c0-20.678-16.822-37.5-37.5-37.5zM455 342.5c0 12.406-10.094 22.5-22.5 22.5h-40.02a37.3 37.3 0 0 0 7.52-22.5c0-4.143-3.357-7.5-7.5-7.5s-7.5 3.357-7.5 7.5c0 12.406-10.094 22.5-22.5 22.5H240v-52.5c0-4.143-3.357-7.5-7.5-7.5s-7.5 3.357-7.5 7.5V365H37.5C25.094 365 15 354.906 15 342.5v-215c0-12.406 10.094-22.5 22.5-22.5H225v177.5c0 4.143 3.357 7.5 7.5 7.5s7.5-3.357 7.5-7.5V105h122.5c12.406 0 22.5 10.094 22.5 22.5v185c0 4.143 3.357 7.5 7.5 7.5s7.5-3.357 7.5-7.5v-185a37.3 37.3 0 0 0-7.52-22.5h40.02c12.406 0 22.5 10.094 22.5 22.5v215z"/><circle style="fill:#082947" cx="183" cy="142.976" r="7.5"/></svg>